<svg width="101" height="28" viewBox="0 0 101 28" fill="none" xmlns="http://www.w3.org/2000/svg">
<path d="M30.7802 7.5V9.54688H32.3583V10.6641H30.7802V15.9062C30.7802 16.2448 30.8505 16.5 30.9911 16.6719C31.1317 16.8385 31.3713 16.9219 31.7098 16.9219C31.8765 16.9219 32.1057 16.8906 32.3973 16.8281V18C32.0171 18.1042 31.6473 18.1562 31.288 18.1562C30.6421 18.1562 30.1552 17.9609 29.827 17.5703C29.4989 17.1797 29.3348 16.625 29.3348 15.9062V10.6641H27.7958V9.54688H29.3348V7.5H30.7802ZM35.6239 18H34.1786V9.54688H35.6239V18ZM34.0614 7.30469C34.0614 7.07031 34.1317 6.8724 34.2723 6.71094C34.4182 6.54948 34.6317 6.46875 34.913 6.46875C35.1942 6.46875 35.4078 6.54948 35.5536 6.71094C35.6994 6.8724 35.7723 7.07031 35.7723 7.30469C35.7723 7.53906 35.6994 7.73438 35.5536 7.89062C35.4078 8.04688 35.1942 8.125 34.913 8.125C34.6317 8.125 34.4182 8.04688 34.2723 7.89062C34.1317 7.73438 34.0614 7.53906 34.0614 7.30469ZM43.163 18C43.0796 17.8333 43.0119 17.5365 42.9598 17.1094C42.288 17.8073 41.4859 18.1562 40.5536 18.1562C39.7203 18.1562 39.0354 17.9219 38.4989 17.4531C37.9677 16.9792 37.702 16.3802 37.702 15.6562C37.702 14.776 38.0354 14.0938 38.702 13.6094C39.3739 13.1198 40.3166 12.875 41.5302 12.875H42.9364V12.2109C42.9364 11.7057 42.7854 11.3047 42.4833 11.0078C42.1812 10.7057 41.7359 10.5547 41.1473 10.5547C40.6317 10.5547 40.1994 10.6849 39.8505 10.9453C39.5015 11.2057 39.327 11.5208 39.327 11.8906H37.8739C37.8739 11.4688 38.0223 11.0625 38.3192 10.6719C38.6213 10.276 39.0275 9.96354 39.538 9.73438C40.0536 9.50521 40.6187 9.39062 41.2333 9.39062C42.2072 9.39062 42.9703 9.63542 43.5223 10.125C44.0744 10.6094 44.3609 11.2786 44.3817 12.1328V16.0234C44.3817 16.7995 44.4807 17.4167 44.6786 17.875V18H43.163ZM40.7645 16.8984C41.2177 16.8984 41.6473 16.7812 42.0536 16.5469C42.4598 16.3125 42.7541 16.0078 42.9364 15.6328V13.8984H41.8036C40.0328 13.8984 39.1473 14.4167 39.1473 15.4531C39.1473 15.9062 39.2984 16.2604 39.6005 16.5156C39.9025 16.7708 40.2906 16.8984 40.7645 16.8984ZM46.3036 13.7031C46.3036 12.3854 46.6083 11.3385 47.2177 10.5625C47.827 9.78125 48.6343 9.39062 49.6395 9.39062C50.6708 9.39062 51.4755 9.75521 52.0536 10.4844L52.1239 9.54688H53.4442V17.7969C53.4442 18.8906 53.1187 19.7526 52.4677 20.3828C51.8218 21.013 50.952 21.3281 49.8583 21.3281C49.2489 21.3281 48.6525 21.1979 48.0692 20.9375C47.4859 20.6771 47.0406 20.3203 46.7333 19.8672L47.4833 19C48.1031 19.7656 48.8609 20.1484 49.7567 20.1484C50.4598 20.1484 51.0067 19.9505 51.3973 19.5547C51.7932 19.1589 51.9911 18.6016 51.9911 17.8828V17.1562C51.413 17.8229 50.6239 18.1562 49.6239 18.1562C48.6343 18.1562 47.8322 17.7578 47.2177 16.9609C46.6083 16.1641 46.3036 15.0781 46.3036 13.7031ZM47.7567 13.8672C47.7567 14.8203 47.952 15.5703 48.3427 16.1172C48.7333 16.6589 49.2802 16.9297 49.9833 16.9297C50.8947 16.9297 51.564 16.5156 51.9911 15.6875V11.8281C51.5484 11.0208 50.8843 10.6172 49.9989 10.6172C49.2958 10.6172 48.7463 10.8906 48.3505 11.4375C47.9546 11.9844 47.7567 12.7943 47.7567 13.8672ZM55.2489 13.6953C55.2489 12.8672 55.4104 12.1224 55.7333 11.4609C56.0614 10.7995 56.5145 10.2891 57.0927 9.92969C57.676 9.57031 58.34 9.39062 59.0848 9.39062C60.2359 9.39062 61.1656 9.78906 61.8739 10.5859C62.5874 11.3828 62.9442 12.4427 62.9442 13.7656V13.8672C62.9442 14.6901 62.7854 15.4297 62.4677 16.0859C62.1552 16.737 61.7046 17.2448 61.1161 17.6094C60.5328 17.974 59.8609 18.1562 59.1005 18.1562C57.9546 18.1562 57.0249 17.7578 56.3114 16.9609C55.6031 16.1641 55.2489 15.1094 55.2489 13.7969V13.6953ZM56.702 13.8672C56.702 14.8047 56.9182 15.5573 57.3505 16.125C57.788 16.6927 58.3713 16.9766 59.1005 16.9766C59.8348 16.9766 60.4182 16.6901 60.8505 16.1172C61.2828 15.5391 61.4989 14.7318 61.4989 13.6953C61.4989 12.7682 61.2775 12.0182 60.8348 11.4453C60.3973 10.8672 59.814 10.5781 59.0848 10.5781C58.3713 10.5781 57.7958 10.862 57.3583 11.4297C56.9208 11.9974 56.702 12.8099 56.702 13.8672ZM70.8505 19.1797H63.6942V18H70.8505V19.1797ZM73.5458 18H72.1005V6H73.5458V18ZM81.0848 17.1641C80.5223 17.8255 79.6968 18.1562 78.6083 18.1562C77.7072 18.1562 77.0197 17.8958 76.5458 17.375C76.077 16.849 75.84 16.0729 75.8348 15.0469V9.54688H77.2802V15.0078C77.2802 16.2891 77.801 16.9297 78.8427 16.9297C79.9468 16.9297 80.6812 16.5182 81.0458 15.6953V9.54688H82.4911V18H81.1161L81.0848 17.1641ZM88.0848 16.9766C88.6005 16.9766 89.051 16.8203 89.4364 16.5078C89.8218 16.1953 90.0354 15.8047 90.077 15.3359H91.4442C91.4182 15.8203 91.2515 16.2812 90.9442 16.7188C90.6369 17.1562 90.2255 17.5052 89.7098 17.7656C89.1994 18.026 88.6578 18.1562 88.0848 18.1562C86.9338 18.1562 86.0171 17.7734 85.3348 17.0078C84.6578 16.237 84.3192 15.1849 84.3192 13.8516V13.6094C84.3192 12.7865 84.4703 12.0547 84.7723 11.4141C85.0744 10.7734 85.5067 10.276 86.0692 9.92188C86.6369 9.56771 87.3062 9.39062 88.077 9.39062C89.0249 9.39062 89.8114 9.67448 90.4364 10.2422C91.0666 10.8099 91.4025 11.5469 91.4442 12.4531H90.077C90.0354 11.9062 89.827 11.4583 89.452 11.1094C89.0822 10.7552 88.6239 10.5781 88.077 10.5781C87.3427 10.5781 86.7723 10.8438 86.3661 11.375C85.965 11.901 85.7645 12.6641 85.7645 13.6641V13.9375C85.7645 14.9115 85.965 15.6615 86.3661 16.1875C86.7671 16.7135 87.34 16.9766 88.0848 16.9766ZM94.5145 10.5703C95.1552 9.78385 95.9885 9.39062 97.0145 9.39062C98.801 9.39062 99.702 10.3984 99.7177 12.4141V18H98.2723V12.4062C98.2671 11.7969 98.1265 11.3464 97.8505 11.0547C97.5796 10.763 97.1552 10.6172 96.577 10.6172C96.1083 10.6172 95.6968 10.7422 95.3427 10.9922C94.9885 11.2422 94.7124 11.5703 94.5145 11.9766V18H93.0692V6H94.5145V10.5703Z" fill="#C4C4CC"/>
<g clip-path="url(#clip0_61385:196)">
<path d="M7.92058 5.56396C3.54688 5.56396 0 9.43658 0 14.2138C0 18.0347 2.26953 21.2763 5.41835 22.421C5.81443 22.5007 5.959 22.2337 5.959 22.0043C5.959 21.7986 5.95207 21.2547 5.94811 20.5332C3.74492 21.0555 3.27953 19.3734 3.27953 19.3734C2.92009 18.374 2.40024 18.108 2.40024 18.108C1.68036 17.5717 2.45371 17.5824 2.45371 17.5824C3.24883 17.6438 3.6667 18.4741 3.6667 18.4741C4.3737 19.7955 5.52133 19.4143 5.97286 19.1924C6.04416 18.6335 6.24913 18.2523 6.47588 18.0358C4.71729 17.8172 2.86761 17.0752 2.86761 13.7615C2.86761 12.817 3.17655 12.0449 3.68353 11.4397C3.60134 11.221 3.33003 10.3412 3.76076 9.1512C3.76076 9.1512 4.42618 8.91858 5.9392 10.0375C6.57094 9.84581 7.24824 9.74997 7.92256 9.74673C8.5949 9.75104 9.27319 9.84581 9.90592 10.0386C11.418 8.91966 12.0824 9.15227 12.0824 9.15227C12.5141 10.3433 12.2428 11.2221 12.1616 11.4407C12.6696 12.046 12.9755 12.8181 12.9755 13.7626C12.9755 17.0849 11.1239 17.8161 9.35933 18.0304C9.64352 18.2975 9.89701 18.8252 9.89701 19.6318C9.89701 20.7884 9.88711 21.721 9.88711 22.0043C9.88711 22.2358 10.0297 22.505 10.4317 22.42C13.5756 21.2741 15.8431 18.0337 15.8431 14.2138C15.8431 9.43658 12.2963 5.56396 7.92058 5.56396Z" fill="#C4C4CC"/>
</g>
<defs>
<clipPath id="clip0_61385:196">
<rect width="15.8431" height="17.2308" fill="white" transform="translate(0 5.38461)"/>
</clipPath>
</defs>
</svg>
