<svg width="16" height="18" viewBox="0 0 16 18" fill="none" xmlns="http://www.w3.org/2000/svg">
<g clip-path="url(#clip0_61385:198)">
<path d="M7.92058 0.563965C3.54688 0.563965 0 4.43658 0 9.21381C0 13.0347 2.26953 16.2763 5.41835 17.421C5.81443 17.5007 5.959 17.2337 5.959 17.0043C5.959 16.7986 5.95207 16.2547 5.94811 15.5332C3.74492 16.0555 3.27953 14.3734 3.27953 14.3734C2.92009 13.374 2.40024 13.108 2.40024 13.108C1.68036 12.5717 2.45371 12.5824 2.45371 12.5824C3.24883 12.6438 3.6667 13.4741 3.6667 13.4741C4.3737 14.7955 5.52133 14.4143 5.97286 14.1924C6.04416 13.6335 6.24913 13.2523 6.47588 13.0358C4.71729 12.8172 2.86761 12.0752 2.86761 8.7615C2.86761 7.81704 3.17655 7.04489 3.68353 6.43966C3.60134 6.22104 3.33003 5.3412 3.76076 4.1512C3.76076 4.1512 4.42618 3.91858 5.9392 5.0375C6.57094 4.84581 7.24824 4.74997 7.92256 4.74673C8.5949 4.75104 9.27319 4.84581 9.90592 5.03858C11.418 3.91966 12.0824 4.15227 12.0824 4.15227C12.5141 5.34335 12.2428 6.22212 12.1616 6.44073C12.6696 7.04597 12.9755 7.81812 12.9755 8.76258C12.9755 12.0849 11.1239 12.8161 9.35933 13.0304C9.64352 13.2975 9.89701 13.8252 9.89701 14.6318C9.89701 15.7884 9.88711 16.721 9.88711 17.0043C9.88711 17.2358 10.0297 17.505 10.4317 17.42C13.5756 16.2741 15.8431 13.0337 15.8431 9.21381C15.8431 4.43658 12.2963 0.563965 7.92058 0.563965Z" fill="#C4C4CC"/>
</g>
<defs>
<clipPath id="clip0_61385:198">
<rect width="15.8431" height="17.2308" fill="white" transform="translate(0 0.384613)"/>
</clipPath>
</defs>
</svg>
